<svg id="visual" viewBox="0 0 900 600" width="900" height="600" xmlns="http://www.w3.org/2000/svg" xmlns:xlink="http://www.w3.org/1999/xlink" version="1.1"><rect x="0" y="0" width="900" height="600" fill="#001220"></rect><defs><linearGradient id="grad1_0" x1="33.3%" y1="0%" x2="100%" y2="100%"><stop offset="20%" stop-color="#001220" stop-opacity="1"></stop><stop offset="80%" stop-color="#001220" stop-opacity="1"></stop></linearGradient></defs><defs><linearGradient id="grad2_0" x1="0%" y1="0%" x2="66.7%" y2="100%"><stop offset="20%" stop-color="#001220" stop-opacity="1"></stop><stop offset="80%" stop-color="#001220" stop-opacity="1"></stop></linearGradient></defs><g transform="translate(900, 0)"><path d="M0 486.7C-69.9 487.4 -139.7 488 -186.3 449.7C-232.8 411.4 -256.1 334.1 -279.3 279.3C-302.5 224.5 -325.7 192.1 -360.3 149.2C-394.9 106.4 -440.8 53.2 -486.7 0L0 0Z" fill="#27168a"></path></g><g transform="translate(0, 600)"><path d="M0 -486.7C69.3 -481.9 138.7 -477 182.2 -439.8C225.7 -402.6 243.3 -333 289.9 -289.9C336.5 -246.8 412.1 -230.2 449.7 -186.3C487.3 -142.4 487 -71.2 486.7 0L0 0Z" fill="#27168a"></path></g></svg>