<!--?xml version="1.0" standalone="no"?-->
              <svg id="sw-js-blob-svg" viewBox="0 0 100 100" xmlns="http://www.w3.org/2000/svg" version="1.1">
                    <defs> 
                        <linearGradient id="sw-gradient" x1="0" x2="1" y1="1" y2="0">
                            <stop id="stop1" stop-color="rgba(38.247, 109.834, 221.721, 1)" offset="0%"></stop>
                            <stop id="stop2" stop-color="rgba(80.997, 12.435, 162.525, 1)" offset="100%"></stop>
                        </linearGradient>
                    </defs>
                <path fill="url(#sw-gradient)" d="M19.1,-30.6C25.9,-25.4,33.3,-22,38.1,-16C43,-10.1,45.3,-1.6,44.3,6.5C43.3,14.6,39,22.3,32.7,27C26.5,31.7,18.4,33.5,10.8,35C3.1,36.4,-4.1,37.6,-10.7,35.9C-17.3,34.2,-23.2,29.7,-28.8,24.4C-34.3,19,-39.5,12.7,-41.6,5.3C-43.7,-2.1,-42.7,-10.6,-39.5,-18.1C-36.2,-25.6,-30.5,-32.2,-23.6,-37.3C-16.6,-42.5,-8.3,-46.2,-1.1,-44.5C6.2,-42.8,12.3,-35.8,19.1,-30.6Z" width="100%" height="100%" transform="translate(50 50)" style="transition: 0.3s;" stroke-width="0" stroke="url(#sw-gradient)"></path>
              </svg>