<svg id="visual" viewBox="0 0 900 600" width="900" height="600" xmlns="http://www.w3.org/2000/svg" xmlns:xlink="http://www.w3.org/1999/xlink" version="1.1"><rect x="0" y="0" width="900" height="600" fill="#002233"></rect><path d="M0 372L21.5 376.7C43 381.3 86 390.7 128.8 363.8C171.7 337 214.3 274 257.2 236.8C300 199.7 343 188.3 385.8 185.3C428.7 182.3 471.3 187.7 514.2 209.7C557 231.7 600 270.3 642.8 265.3C685.7 260.3 728.3 211.7 771.2 184.8C814 158 857 153 878.5 150.5L900 148L900 0L878.5 0C857 0 814 0 771.2 0C728.3 0 685.7 0 642.8 0C600 0 557 0 514.2 0C471.3 0 428.7 0 385.8 0C343 0 300 0 257.2 0C214.3 0 171.7 0 128.8 0C86 0 43 0 21.5 0L0 0Z" fill="#0066FF" stroke-linecap="round" stroke-linejoin="miter"></path></svg>