<?xml version="1.0" standalone="no"?><svg xmlns="http://www.w3.org/2000/svg" viewBox="0 0 1440 320"><path fill="#000b76" fill-opacity="0.9" d="M0,160L8.3,165.3C16.6,171,33,181,50,197.3C66.2,213,83,235,99,250.7C115.9,267,132,277,149,261.3C165.5,245,182,203,199,176C215.2,149,232,139,248,149.3C264.8,160,281,192,298,176C314.5,160,331,96,348,101.3C364.1,107,381,181,397,202.7C413.8,224,430,192,447,149.3C463.4,107,480,53,497,80C513.1,107,530,213,546,224C562.8,235,579,149,596,117.3C612.4,85,629,107,646,128C662.1,149,679,171,695,181.3C711.7,192,728,192,745,192C761.4,192,778,192,794,208C811,224,828,256,844,261.3C860.7,267,877,245,894,197.3C910.3,149,927,75,943,64C960,53,977,107,993,128C1009.7,149,1026,139,1043,149.3C1059.3,160,1076,192,1092,202.7C1109,213,1126,203,1142,192C1158.6,181,1175,171,1192,192C1208.3,213,1225,267,1241,266.7C1257.9,267,1274,213,1291,192C1307.6,171,1324,181,1341,192C1357.2,203,1374,213,1390,213.3C1406.9,213,1423,203,1432,197.3L1440,192L1440,320L1431.7,320C1423.4,320,1407,320,1390,320C1373.8,320,1357,320,1341,320C1324.1,320,1308,320,1291,320C1274.5,320,1258,320,1241,320C1224.8,320,1208,320,1192,320C1175.2,320,1159,320,1142,320C1125.5,320,1109,320,1092,320C1075.9,320,1059,320,1043,320C1026.2,320,1010,320,993,320C976.6,320,960,320,943,320C926.9,320,910,320,894,320C877.2,320,861,320,844,320C827.6,320,811,320,794,320C777.9,320,761,320,745,320C728.3,320,712,320,695,320C678.6,320,662,320,646,320C629,320,612,320,596,320C579.3,320,563,320,546,320C529.7,320,513,320,497,320C480,320,463,320,447,320C430.3,320,414,320,397,320C380.7,320,364,320,348,320C331,320,314,320,298,320C281.4,320,265,320,248,320C231.7,320,215,320,199,320C182.1,320,166,320,149,320C132.4,320,116,320,99,320C82.8,320,66,320,50,320C33.1,320,17,320,8,320L0,320Z"></path></svg>