<!--?xml version="1.0" standalone="no"?-->
              <svg id="sw-js-blob-svg" viewBox="0 0 100 100" xmlns="http://www.w3.org/2000/svg" version="1.1">
                    <defs> 
                        <linearGradient id="sw-gradient" x1="0" x2="1" y1="1" y2="0">
                            <stop id="stop1" stop-color="rgba(248, 117, 55, 1)" offset="0%"></stop>
                            <stop id="stop2" stop-color="rgba(251, 168, 31, 1)" offset="100%"></stop>
                        </linearGradient>
                    </defs>
                <path fill="url(#sw-gradient)" d="M24.6,-36.5C31.3,-33.9,36,-26.2,37.6,-18.4C39.2,-10.6,37.8,-2.7,36.6,5.2C35.4,13.1,34.4,21,30.3,26.8C26.2,32.6,19,36.3,11.3,38.7C3.6,41,-4.5,42.1,-12.4,40.5C-20.2,38.9,-27.8,34.8,-33,28.7C-38.3,22.5,-41.2,14.4,-41.9,6.3C-42.7,-1.9,-41.3,-10,-37.3,-16.3C-33.3,-22.6,-26.7,-27,-20.1,-29.6C-13.4,-32.3,-6.7,-33.3,1.1,-35.1C8.9,-36.8,17.8,-39.2,24.6,-36.5Z" width="100%" height="100%" transform="translate(50 50)" style="transition: 0.3s;" stroke-width="0"></path>
              </svg>