<svg id="visual" viewBox="0 0 900 600" width="900" height="600" xmlns="http://www.w3.org/2000/svg" xmlns:xlink="http://www.w3.org/1999/xlink" version="1.1"><rect x="0" y="0" width="900" height="600" fill="#0c1016"></rect><path d="M0 313L21.5 324.5C43 336 86 359 128.8 366C171.7 373 214.3 364 257.2 340.3C300 316.7 343 278.3 385.8 263.5C428.7 248.7 471.3 257.3 514.2 281.8C557 306.3 600 346.7 642.8 360C685.7 373.3 728.3 359.7 771.2 330.2C814 300.7 857 255.3 878.5 232.7L900 210L900 601L878.5 601C857 601 814 601 771.2 601C728.3 601 685.7 601 642.8 601C600 601 557 601 514.2 601C471.3 601 428.7 601 385.8 601C343 601 300 601 257.2 601C214.3 601 171.7 601 128.8 601C86 601 43 601 21.5 601L0 601Z" fill="#111929"></path><path d="M0 430L21.5 412.3C43 394.7 86 359.3 128.8 352.3C171.7 345.3 214.3 366.7 257.2 375.5C300 384.3 343 380.7 385.8 388.5C428.7 396.3 471.3 415.7 514.2 427.8C557 440 600 445 642.8 430.7C685.7 416.3 728.3 382.7 771.2 371C814 359.3 857 369.7 878.5 374.8L900 380L900 601L878.5 601C857 601 814 601 771.2 601C728.3 601 685.7 601 642.8 601C600 601 557 601 514.2 601C471.3 601 428.7 601 385.8 601C343 601 300 601 257.2 601C214.3 601 171.7 601 128.8 601C86 601 43 601 21.5 601L0 601Z" fill="#111929"></path><path d="M0 519L21.5 505C43 491 86 463 128.8 450.8C171.7 438.7 214.3 442.3 257.2 450.8C300 459.3 343 472.7 385.8 481.7C428.7 490.7 471.3 495.3 514.2 504C557 512.7 600 525.3 642.8 512.5C685.7 499.7 728.3 461.3 771.2 455.5C814 449.7 857 476.3 878.5 489.7L900 503L900 601L878.5 601C857 601 814 601 771.2 601C728.3 601 685.7 601 642.8 601C600 601 557 601 514.2 601C471.3 601 428.7 601 385.8 601C343 601 300 601 257.2 601C214.3 601 171.7 601 128.8 601C86 601 43 601 21.5 601L0 601Z" fill="#111929"></path></svg>