<svg id="visual" viewBox="0 0 900 600" width="900" height="600" xmlns="http://www.w3.org/2000/svg" xmlns:xlink="http://www.w3.org/1999/xlink" version="1.1"><rect x="0" y="0" width="900" height="600" fill="#001122"></rect><path d="M0 335L8.8 338.7C17.7 342.3 35.3 349.7 53 345.3C70.7 341 88.3 325 106 326.5C123.7 328 141.3 347 159 347.7C176.7 348.3 194.3 330.7 212 337.7C229.7 344.7 247.3 376.3 265 385.5C282.7 394.7 300.3 381.3 318 367.2C335.7 353 353.3 338 371 332C388.7 326 406.3 329 423.8 330.2C441.3 331.3 458.7 330.7 476.2 328.3C493.7 326 511.3 322 529 330.2C546.7 338.3 564.3 358.7 582 366.5C599.7 374.3 617.3 369.7 635 365.2C652.7 360.7 670.3 356.3 688 362.3C705.7 368.3 723.3 384.7 741 389.8C758.7 395 776.3 389 794 373.3C811.7 357.7 829.3 332.3 847 333C864.7 333.7 882.3 360.3 891.2 373.7L900 387L900 601L891.2 601C882.3 601 864.7 601 847 601C829.3 601 811.7 601 794 601C776.3 601 758.7 601 741 601C723.3 601 705.7 601 688 601C670.3 601 652.7 601 635 601C617.3 601 599.7 601 582 601C564.3 601 546.7 601 529 601C511.3 601 493.7 601 476.2 601C458.7 601 441.3 601 423.8 601C406.3 601 388.7 601 371 601C353.3 601 335.7 601 318 601C300.3 601 282.7 601 265 601C247.3 601 229.7 601 212 601C194.3 601 176.7 601 159 601C141.3 601 123.7 601 106 601C88.3 601 70.7 601 53 601C35.3 601 17.7 601 8.8 601L0 601Z" fill="#6600ff"></path><path d="M0 387L8.8 384.7C17.7 382.3 35.3 377.7 53 373.8C70.7 370 88.3 367 106 365.3C123.7 363.7 141.3 363.3 159 368.8C176.7 374.3 194.3 385.7 212 401C229.7 416.3 247.3 435.7 265 430.2C282.7 424.7 300.3 394.3 318 381.7C335.7 369 353.3 374 371 374.2C388.7 374.3 406.3 369.7 423.8 380.3C441.3 391 458.7 417 476.2 415.5C493.7 414 511.3 385 529 371.8C546.7 358.7 564.3 361.3 582 367.8C599.7 374.3 617.3 384.7 635 382.7C652.7 380.7 670.3 366.3 688 361.5C705.7 356.7 723.3 361.3 741 373C758.7 384.7 776.3 403.3 794 401.5C811.7 399.7 829.3 377.3 847 370C864.7 362.7 882.3 370.3 891.2 374.2L900 378L900 601L891.2 601C882.3 601 864.7 601 847 601C829.3 601 811.7 601 794 601C776.3 601 758.7 601 741 601C723.3 601 705.7 601 688 601C670.3 601 652.7 601 635 601C617.3 601 599.7 601 582 601C564.3 601 546.7 601 529 601C511.3 601 493.7 601 476.2 601C458.7 601 441.3 601 423.8 601C406.3 601 388.7 601 371 601C353.3 601 335.7 601 318 601C300.3 601 282.7 601 265 601C247.3 601 229.7 601 212 601C194.3 601 176.7 601 159 601C141.3 601 123.7 601 106 601C88.3 601 70.7 601 53 601C35.3 601 17.7 601 8.8 601L0 601Z" fill="#6600ff"></path><path d="M0 406L8.8 406.7C17.7 407.3 35.3 408.7 53 419.5C70.7 430.3 88.3 450.7 106 457C123.7 463.3 141.3 455.7 159 459.2C176.7 462.7 194.3 477.3 212 481.3C229.7 485.3 247.3 478.7 265 477.3C282.7 476 300.3 480 318 469.7C335.7 459.3 353.3 434.7 371 425C388.7 415.3 406.3 420.7 423.8 429.2C441.3 437.7 458.7 449.3 476.2 455.5C493.7 461.7 511.3 462.3 529 453.7C546.7 445 564.3 427 582 421.8C599.7 416.7 617.3 424.3 635 425.8C652.7 427.3 670.3 422.7 688 429.8C705.7 437 723.3 456 741 466.2C758.7 476.3 776.3 477.7 794 472.2C811.7 466.7 829.3 454.3 847 444.8C864.7 435.3 882.3 428.7 891.2 425.3L900 422L900 601L891.2 601C882.3 601 864.7 601 847 601C829.3 601 811.7 601 794 601C776.3 601 758.7 601 741 601C723.3 601 705.7 601 688 601C670.3 601 652.7 601 635 601C617.3 601 599.7 601 582 601C564.3 601 546.7 601 529 601C511.3 601 493.7 601 476.2 601C458.7 601 441.3 601 423.8 601C406.3 601 388.7 601 371 601C353.3 601 335.7 601 318 601C300.3 601 282.7 601 265 601C247.3 601 229.7 601 212 601C194.3 601 176.7 601 159 601C141.3 601 123.7 601 106 601C88.3 601 70.7 601 53 601C35.3 601 17.7 601 8.8 601L0 601Z" fill="#6600ff"></path><path d="M0 509L8.8 506C17.7 503 35.3 497 53 499.3C70.7 501.7 88.3 512.3 106 512.3C123.7 512.3 141.3 501.7 159 491.3C176.7 481 194.3 471 212 472.7C229.7 474.3 247.3 487.7 265 498.2C282.7 508.7 300.3 516.3 318 520C335.7 523.7 353.3 523.3 371 512.7C388.7 502 406.3 481 423.8 473C441.3 465 458.7 470 476.2 473.5C493.7 477 511.3 479 529 485C546.7 491 564.3 501 582 503.5C599.7 506 617.3 501 635 500.3C652.7 499.7 670.3 503.3 688 499.8C705.7 496.3 723.3 485.7 741 483C758.7 480.3 776.3 485.7 794 491.2C811.7 496.7 829.3 502.3 847 507C864.7 511.7 882.3 515.3 891.2 517.2L900 519L900 601L891.2 601C882.3 601 864.7 601 847 601C829.3 601 811.7 601 794 601C776.3 601 758.7 601 741 601C723.3 601 705.7 601 688 601C670.3 601 652.7 601 635 601C617.3 601 599.7 601 582 601C564.3 601 546.7 601 529 601C511.3 601 493.7 601 476.2 601C458.7 601 441.3 601 423.8 601C406.3 601 388.7 601 371 601C353.3 601 335.7 601 318 601C300.3 601 282.7 601 265 601C247.3 601 229.7 601 212 601C194.3 601 176.7 601 159 601C141.3 601 123.7 601 106 601C88.3 601 70.7 601 53 601C35.3 601 17.7 601 8.8 601L0 601Z" fill="#6600ff"></path><path d="M0 538L8.8 537.8C17.7 537.7 35.3 537.3 53 535.3C70.7 533.3 88.3 529.7 106 534.8C123.7 540 141.3 554 159 551.3C176.7 548.7 194.3 529.3 212 528.8C229.7 528.3 247.3 546.7 265 547C282.7 547.3 300.3 529.7 318 525.3C335.7 521 353.3 530 371 531.8C388.7 533.7 406.3 528.3 423.8 523.3C441.3 518.3 458.7 513.7 476.2 515C493.7 516.3 511.3 523.7 529 529.2C546.7 534.7 564.3 538.3 582 538.5C599.7 538.7 617.3 535.3 635 533.8C652.7 532.3 670.3 532.7 688 533.5C705.7 534.3 723.3 535.7 741 539.2C758.7 542.7 776.3 548.3 794 544.8C811.7 541.3 829.3 528.7 847 522.5C864.7 516.3 882.3 516.7 891.2 516.8L900 517L900 601L891.2 601C882.3 601 864.7 601 847 601C829.3 601 811.7 601 794 601C776.3 601 758.7 601 741 601C723.3 601 705.7 601 688 601C670.3 601 652.7 601 635 601C617.3 601 599.7 601 582 601C564.3 601 546.7 601 529 601C511.3 601 493.7 601 476.2 601C458.7 601 441.3 601 423.8 601C406.3 601 388.7 601 371 601C353.3 601 335.7 601 318 601C300.3 601 282.7 601 265 601C247.3 601 229.7 601 212 601C194.3 601 176.7 601 159 601C141.3 601 123.7 601 106 601C88.3 601 70.7 601 53 601C35.3 601 17.7 601 8.8 601L0 601Z" fill="#6600ff"></path></svg>