<svg id="visual" viewBox="0 0 900 600" width="900" height="600" xmlns="http://www.w3.org/2000/svg" xmlns:xlink="http://www.w3.org/1999/xlink" version="1.1"><rect x="0" y="0" width="900" height="600" fill="#001220"></rect><defs><linearGradient id="grad1_0" x1="33.3%" y1="0%" x2="100%" y2="100%"><stop offset="20%" stop-color="#001220" stop-opacity="1"></stop><stop offset="80%" stop-color="#001220" stop-opacity="1"></stop></linearGradient></defs><defs><linearGradient id="grad2_0" x1="0%" y1="0%" x2="66.7%" y2="100%"><stop offset="20%" stop-color="#001220" stop-opacity="1"></stop><stop offset="80%" stop-color="#001220" stop-opacity="1"></stop></linearGradient></defs><g transform="translate(900, 0)"><path d="M0 297.5C-13.7 300 -27.4 302.5 -38.8 294.9C-50.3 287.3 -59.5 269.6 -69.6 259.8C-79.7 250.1 -90.7 248.2 -101.4 244.8C-112.1 241.4 -122.5 236.4 -136 235.6C-149.5 234.7 -166.3 238 -180.2 234.8C-194.1 231.7 -205.2 222.1 -205.8 205.8C-206.4 189.4 -196.5 166.2 -202.3 155.2C-208.1 144.2 -229.6 145.5 -239 138C-248.4 130.5 -245.6 114.4 -243.9 101C-242.2 87.6 -241.4 76.9 -251.1 67.3C-260.9 57.7 -281 49.3 -290.5 38.2C-300 27.2 -298.7 13.6 -297.5 0L0 0Z" fill="#2d227b"></path></g><g transform="translate(0, 600)"><path d="M0 -297.5C11.7 -284.9 23.4 -272.4 35 -265.7C46.6 -259 58.1 -258.3 67.8 -253.1C77.6 -247.9 85.5 -238.2 99.5 -240.2C113.4 -242.2 133.4 -255.7 148 -256.3C162.6 -256.9 172 -244.6 176.5 -230.1C181.1 -215.6 180.8 -198.9 192.3 -192.3C203.9 -185.7 227.2 -189.2 236 -181.1C244.8 -173 239 -153.4 244.2 -141C249.5 -128.6 265.7 -123.4 273.5 -113.3C281.2 -103.1 280.4 -88.1 277.2 -74.3C274.1 -60.5 268.7 -47.9 271.7 -35.8C274.6 -23.6 286.1 -11.8 297.5 0L0 0Z" fill="#2d227b"></path></g></svg>