<svg id="visual" viewBox="0 0 900 600" width="900" height="600" xmlns="http://www.w3.org/2000/svg" xmlns:xlink="http://www.w3.org/1999/xlink" version="1.1"><rect x="0" y="0" width="900" height="600" fill="#002233"></rect><path d="M421 600L435.3 585.7C449.7 571.3 478.3 542.7 493.5 514.2C508.7 485.7 510.3 457.3 506.7 428.8C503 400.3 494 371.7 519 343C544 314.3 603 285.7 602.8 257C602.7 228.3 543.3 199.7 513.3 171.2C483.3 142.7 482.7 114.3 470.2 85.8C457.7 57.3 433.3 28.7 421.2 14.3L409 0L900 0L900 14.3C900 28.7 900 57.3 900 85.8C900 114.3 900 142.7 900 171.2C900 199.7 900 228.3 900 257C900 285.7 900 314.3 900 343C900 371.7 900 400.3 900 428.8C900 457.3 900 485.7 900 514.2C900 542.7 900 571.3 900 585.7L900 600Z" fill="#0066FF" stroke-linecap="round" stroke-linejoin="miter"></path></svg>