<svg id="visual" viewBox="0 0 900 600" width="900" height="600" xmlns="http://www.w3.org/2000/svg" xmlns:xlink="http://www.w3.org/1999/xlink" version="1.1"><rect x="0" y="0" width="900" height="600" fill="#002233"></rect><path d="M764 600L750.3 585.7C736.7 571.3 709.3 542.7 698.5 514.2C687.7 485.7 693.3 457.3 687.5 428.8C681.7 400.3 664.3 371.7 631.2 343C598 314.3 549 285.7 531.8 257C514.7 228.3 529.3 199.7 567 171.2C604.7 142.7 665.3 114.3 658.2 85.8C651 57.3 576 28.7 538.5 14.3L501 0L900 0L900 14.3C900 28.7 900 57.3 900 85.8C900 114.3 900 142.7 900 171.2C900 199.7 900 228.3 900 257C900 285.7 900 314.3 900 343C900 371.7 900 400.3 900 428.8C900 457.3 900 485.7 900 514.2C900 542.7 900 571.3 900 585.7L900 600Z" fill="#0066FF" stroke-linecap="round" stroke-linejoin="miter"></path></svg>