<svg id="visual" viewBox="0 0 900 600" width="900" height="600" xmlns="http://www.w3.org/2000/svg" xmlns:xlink="http://www.w3.org/1999/xlink" version="1.1"><rect x="0" y="0" width="900" height="600" fill="#002233"></rect><path d="M318 600L339.7 585.7C361.3 571.3 404.7 542.7 423 514.2C441.3 485.7 434.7 457.3 446.3 428.8C458 400.3 488 371.7 488.2 343C488.3 314.3 458.7 285.7 454.8 257C451 228.3 473 199.7 487 171.2C501 142.7 507 114.3 505.5 85.8C504 57.3 495 28.7 490.5 14.3L486 0L900 0L900 14.3C900 28.7 900 57.3 900 85.8C900 114.3 900 142.7 900 171.2C900 199.7 900 228.3 900 257C900 285.7 900 314.3 900 343C900 371.7 900 400.3 900 428.8C900 457.3 900 485.7 900 514.2C900 542.7 900 571.3 900 585.7L900 600Z" fill="#0066FF" stroke-linecap="round" stroke-linejoin="miter"></path></svg>