<svg id="visual" viewBox="0 0 900 600" width="900" height="600" xmlns="http://www.w3.org/2000/svg" xmlns:xlink="http://www.w3.org/1999/xlink" version="1.1"><rect x="0" y="0" width="900" height="600" fill="#FFFFFF"></rect><path d="M0 375L21.5 374.7C43 374.3 86 373.7 128.8 344C171.7 314.3 214.3 255.7 257.2 227.8C300 200 343 203 385.8 212.2C428.7 221.3 471.3 236.7 514.2 257.7C557 278.7 600 305.3 642.8 326.7C685.7 348 728.3 364 771.2 341.5C814 319 857 258 878.5 227.5L900 197L900 601L878.5 601C857 601 814 601 771.2 601C728.3 601 685.7 601 642.8 601C600 601 557 601 514.2 601C471.3 601 428.7 601 385.8 601C343 601 300 601 257.2 601C214.3 601 171.7 601 128.8 601C86 601 43 601 21.5 601L0 601Z" fill="#0066FF" stroke-linecap="round" stroke-linejoin="miter"></path></svg>