<svg id="visual" viewBox="0 0 900 600" width="900" height="600" xmlns="http://www.w3.org/2000/svg" xmlns:xlink="http://www.w3.org/1999/xlink" version="1.1"><rect x="0" y="0" width="900" height="600" fill="#002233"></rect><path d="M356 600L387 585.7C418 571.3 480 542.7 483.7 514.2C487.3 485.7 432.7 457.3 452.2 428.8C471.7 400.3 565.3 371.7 597.5 343C629.7 314.3 600.3 285.7 585 257C569.7 228.3 568.3 199.7 565.7 171.2C563 142.7 559 114.3 561.8 85.8C564.7 57.3 574.3 28.7 579.2 14.3L584 0L900 0L900 14.3C900 28.7 900 57.3 900 85.8C900 114.3 900 142.7 900 171.2C900 199.7 900 228.3 900 257C900 285.7 900 314.3 900 343C900 371.7 900 400.3 900 428.8C900 457.3 900 485.7 900 514.2C900 542.7 900 571.3 900 585.7L900 600Z" fill="#0066FF" stroke-linecap="round" stroke-linejoin="miter"></path></svg>