<svg id="visual" viewBox="0 0 900 600" width="900" height="600" xmlns="http://www.w3.org/2000/svg" xmlns:xlink="http://www.w3.org/1999/xlink" version="1.1"><rect x="0" y="0" width="900" height="600" fill="#002233"></rect><path d="M670 600L673.5 585.7C677 571.3 684 542.7 657 514.2C630 485.7 569 457.3 537.7 428.8C506.3 400.3 504.7 371.7 498.2 343C491.7 314.3 480.3 285.7 459.7 257C439 228.3 409 199.7 380.7 171.2C352.3 142.7 325.7 114.3 344.2 85.8C362.7 57.3 426.3 28.7 458.2 14.3L490 0L900 0L900 14.3C900 28.7 900 57.3 900 85.8C900 114.3 900 142.7 900 171.2C900 199.7 900 228.3 900 257C900 285.7 900 314.3 900 343C900 371.7 900 400.3 900 428.8C900 457.3 900 485.7 900 514.2C900 542.7 900 571.3 900 585.7L900 600Z" fill="#0066FF" stroke-linecap="round" stroke-linejoin="miter"></path></svg>